<?xml version="1.0" encoding="UTF-8" standalone="no"?>
<!-- Created with Inkscape (http://www.inkscape.org/) -->

<svg
   xmlns:dc="http://purl.org/dc/elements/1.1/"
   xmlns:cc="http://creativecommons.org/ns#"
   xmlns:rdf="http://www.w3.org/1999/02/22-rdf-syntax-ns#"
   xmlns:svg="http://www.w3.org/2000/svg"
   xmlns="http://www.w3.org/2000/svg"
   xmlns:sodipodi="http://sodipodi.sourceforge.net/DTD/sodipodi-0.dtd"
   xmlns:inkscape="http://www.inkscape.org/namespaces/inkscape"
   width="121.28574"
   height="180.85332"
   id="svg4911"
   version="1.1"
   inkscape:version="0.48.5 r10040"
   sodipodi:docname="branch1.svg">
  <defs
     id="defs4913" />
  <sodipodi:namedview
     id="base"
     pagecolor="#ffffff"
     bordercolor="#666666"
     borderopacity="1.0"
     inkscape:pageopacity="0.0"
     inkscape:pageshadow="2"
     inkscape:zoom="1.4"
     inkscape:cx="-128.33204"
     inkscape:cy="174.13819"
     inkscape:document-units="px"
     inkscape:current-layer="layer1"
     showgrid="false"
     fit-margin-top="0"
     fit-margin-left="0"
     fit-margin-right="0"
     fit-margin-bottom="0"
     inkscape:window-width="1280"
     inkscape:window-height="751"
     inkscape:window-x="0"
     inkscape:window-y="0"
     inkscape:window-maximized="1" />
  <metadata
     id="metadata4916">
    <rdf:RDF>
      <cc:Work
         rdf:about="">
        <dc:format>image/svg+xml</dc:format>
        <dc:type
           rdf:resource="http://purl.org/dc/dcmitype/StillImage" />
        <dc:title></dc:title>
      </cc:Work>
    </rdf:RDF>
  </metadata>
  <g
     inkscape:label="Layer 1"
     inkscape:groupmode="layer"
     id="layer1"
     transform="translate(-575.20212,-329.92323)">
    <text
       sodipodi:linespacing="125%"
       id="text7756-4-0-7-8"
       y="326.92719"
       x="702.49969"
       style="font-size:29.47846222px;font-style:normal;font-weight:normal;line-height:125%;letter-spacing:0px;word-spacing:0px;fill:#ffffff;fill-opacity:1;stroke:none;font-family:sans-serif"
       xml:space="preserve"><tspan
         id="tspan7778-3-5-2"
         y="326.92719"
         x="702.49969"
         sodipodi:role="line" /></text>
    <path
       sodipodi:type="arc"
       style="fill:none;stroke:#ffffff;stroke-width:2;stroke-miterlimit:4;stroke-opacity:1;stroke-dasharray:none"
       id="path3597-7"
       sodipodi:cx="88.571426"
       sodipodi:cy="91.430557"
       sodipodi:rx="22.857143"
       sodipodi:ry="22.857143"
       d="m 111.42857,91.430557 c 0,12.623653 -10.23349,22.857143 -22.857144,22.857143 -12.623651,0 -22.857143,-10.23349 -22.857143,-22.857143 0,-12.623651 10.233492,-22.857143 22.857143,-22.857143 12.623654,0 22.857144,10.233492 22.857144,22.857143 z"
       transform="matrix(1,0,0,-1,510.48784,445.21093)" />
    <path
       sodipodi:type="arc"
       style="fill:none;stroke:#ffffff;stroke-width:2;stroke-miterlimit:4;stroke-opacity:1;stroke-dasharray:none"
       id="path3597-9"
       sodipodi:cx="88.571426"
       sodipodi:cy="91.430557"
       sodipodi:rx="22.857143"
       sodipodi:ry="22.857143"
       d="m 111.42857,91.430557 c 0,12.623653 -10.23349,22.857143 -22.857144,22.857143 -12.623651,0 -22.857143,-10.23349 -22.857143,-22.857143 0,-12.623651 10.233492,-22.857143 22.857143,-22.857143 12.623654,0 22.857144,10.233492 22.857144,22.857143 z"
       transform="matrix(1,0,0,-1,510.48784,505.38952)" />
    <path
       sodipodi:type="arc"
       style="fill:none;stroke:#ffffff;stroke-width:2;stroke-miterlimit:4;stroke-opacity:1;stroke-dasharray:none"
       id="path3597-0"
       sodipodi:cx="88.571426"
       sodipodi:cy="91.430557"
       sodipodi:rx="22.857143"
       sodipodi:ry="22.857143"
       d="m 111.42857,91.430557 c 0,12.623653 -10.23349,22.857143 -22.857144,22.857143 -12.623651,0 -22.857143,-10.23349 -22.857143,-22.857143 0,-12.623651 10.233492,-22.857143 22.857143,-22.857143 12.623654,0 22.857144,10.233492 22.857144,22.857143 z"
       transform="matrix(1,0,0,-1,584.05929,471.6395)" />
    <path
       sodipodi:type="arc"
       style="fill:none;stroke:#ffffff;stroke-width:2;stroke-miterlimit:4;stroke-opacity:1;stroke-dasharray:none"
       id="path3597-4"
       sodipodi:cx="88.571426"
       sodipodi:cy="91.430557"
       sodipodi:rx="22.857143"
       sodipodi:ry="22.857143"
       d="m 111.42857,91.430557 c 0,12.623653 -10.23349,22.857143 -22.857144,22.857143 -12.623651,0 -22.857143,-10.23349 -22.857143,-22.857143 0,-12.623651 10.233492,-22.857143 22.857143,-22.857143 12.623654,0 22.857144,10.233492 22.857144,22.857143 z"
       transform="matrix(1,0,0,-1,510.48784,565.56808)" />
    <path
       style="fill:none;stroke:#ffffff;stroke-width:2;stroke-linecap:square;stroke-linejoin:miter;stroke-miterlimit:4;stroke-opacity:1;stroke-dasharray:none"
       d="m 599.05927,378.05208 0,11.99232"
       id="path4427-3"
       inkscape:connector-curvature="0"
       sodipodi:nodetypes="cc" />
    <path
       style="fill:none;stroke:#ffffff;stroke-width:2;stroke-linecap:square;stroke-linejoin:miter;stroke-miterlimit:4;stroke-opacity:1;stroke-dasharray:none"
       d="m 599.05927,449.50868 0,-11.99232"
       id="path4427-9"
       inkscape:connector-curvature="0"
       sodipodi:nodetypes="cc" />
    <path
       style="fill:none;stroke:#ffffff;stroke-width:2;stroke-linecap:round;stroke-linejoin:miter;stroke-miterlimit:4;stroke-opacity:1;stroke-dasharray:none"
       d="m 599.05927,509.77654 0,-11.99232"
       id="path4427-9-2"
       inkscape:connector-curvature="0"
       sodipodi:nodetypes="cc" />
    <path
       style="fill:none;stroke:#ffffff;stroke-width:2;stroke-linecap:butt;stroke-linejoin:miter;stroke-miterlimit:4;stroke-opacity:1;stroke-dasharray:none"
       d="m 620.52254,406.09961 31.40252,-14.82787"
       id="path4493"
       inkscape:connector-curvature="0"
       sodipodi:nodetypes="cc" />
  </g>
</svg>
