<?xml version="1.0" encoding="UTF-8" standalone="no"?>
<!-- Created with Inkscape (http://www.inkscape.org/) -->

<svg
   xmlns:dc="http://purl.org/dc/elements/1.1/"
   xmlns:cc="http://creativecommons.org/ns#"
   xmlns:rdf="http://www.w3.org/1999/02/22-rdf-syntax-ns#"
   xmlns:svg="http://www.w3.org/2000/svg"
   xmlns="http://www.w3.org/2000/svg"
   xmlns:sodipodi="http://sodipodi.sourceforge.net/DTD/sodipodi-0.dtd"
   xmlns:inkscape="http://www.inkscape.org/namespaces/inkscape"
   width="504.32578"
   height="368.20679"
   id="svg4705"
   version="1.1"
   inkscape:version="0.48.5 r10040"
   sodipodi:docname="commit.svg">
  <defs
     id="defs4707" />
  <sodipodi:namedview
     id="base"
     pagecolor="#ffffff"
     bordercolor="#666666"
     borderopacity="1.0"
     inkscape:pageopacity="0.0"
     inkscape:pageshadow="2"
     inkscape:zoom="0.35"
     inkscape:cx="-35.751203"
     inkscape:cy="0.81028162"
     inkscape:document-units="px"
     inkscape:current-layer="layer1"
     showgrid="false"
     fit-margin-top="0"
     fit-margin-left="0"
     fit-margin-right="0"
     fit-margin-bottom="0"
     inkscape:window-width="1280"
     inkscape:window-height="751"
     inkscape:window-x="0"
     inkscape:window-y="0"
     inkscape:window-maximized="1" />
  <metadata
     id="metadata4710">
    <rdf:RDF>
      <cc:Work
         rdf:about="">
        <dc:format>image/svg+xml</dc:format>
        <dc:type
           rdf:resource="http://purl.org/dc/dcmitype/StillImage" />
        <dc:title />
      </cc:Work>
    </rdf:RDF>
  </metadata>
  <g
     inkscape:label="Layer 1"
     inkscape:groupmode="layer"
     id="layer1"
     transform="translate(-410.7512,-164.96564)">
    <path
       sodipodi:nodetypes="cc"
       style="fill:none;stroke:#ffffff;stroke-width:3.93046093;stroke-linecap:butt;stroke-linejoin:miter;stroke-miterlimit:4;stroke-opacity:1;stroke-dasharray:none"
       d="m 472.35734,421.92132 20.4145,28.98096"
       id="path4915-6-4-84"
       inkscape:connector-curvature="0" />
    <path
       transform="matrix(-1.2435159,1.1832341,1.1832341,1.2435159,199.83689,-779.53803)"
       inkscape:transform-center-y="-1.677675"
       inkscape:transform-center-x="1.0960059"
       d="m 370.69677,638.36749 -0.3376,-0.43009 -0.3376,-0.43008 0.54127,-0.0773 0.54127,-0.0773 -0.20367,0.50741 z"
       inkscape:randomized="0"
       inkscape:rounded="0"
       inkscape:flatsided="false"
       sodipodi:arg2="2.4760968"
       sodipodi:arg1="1.4288993"
       sodipodi:r2="0.31567267"
       sodipodi:r1="0.63134533"
       sodipodi:cy="637.74249"
       sodipodi:cx="370.60748"
       sodipodi:sides="3"
       id="path5000-3-1-0-0-41"
       style="fill:none;stroke:#ffffff;stroke-width:2.28981018;stroke-miterlimit:4;stroke-opacity:1;stroke-dasharray:none"
       sodipodi:type="star" />
    <path
       style="fill:none;stroke:#ffffff;stroke-width:3.93046093;stroke-linecap:butt;stroke-linejoin:miter;stroke-miterlimit:4;stroke-opacity:1;stroke-dasharray:none"
       d="m 531.90893,416.70487 c 0.67606,3.74955 6.17797,4.57393 9.67523,6.08568 1.88065,0.81301 3.9008,1.47951 5.94855,1.54779 2.2845,0.0762 4.91926,0.10556 6.7367,-1.28069 3.61865,-2.76013 3.41929,-8.51683 6.00551,-12.26173 1.52973,-2.21508 4.93364,-3.26432 5.52452,-5.89062 0.68498,-3.04451 -0.84681,-6.5312 -2.86246,-8.9135 -1.89737,-2.24254 -4.90165,-3.79631 -7.82847,-4.04672 -2.93657,-0.25124 -6.1477,0.80225 -8.43011,2.66698 -2.06001,1.68306 -3.95121,4.31687 -3.87594,6.97595 0.0513,1.81558 3.2536,2.82198 2.91163,4.60581 -0.35108,1.83141 -2.90113,2.37316 -4.5261,3.28794 -1.74273,0.98107 -3.94993,1.09835 -5.53262,2.32093 -1.62759,1.25725 -4.11138,2.8782 -3.74644,4.90218 z"
       id="path5276-1"
       inkscape:connector-curvature="0"
       sodipodi:nodetypes="aaaaaaaaaaaaaa" />
    <path
       style="fill:none;stroke:#ffffff;stroke-width:3.93046093;stroke-linecap:butt;stroke-linejoin:miter;stroke-miterlimit:4;stroke-opacity:1;stroke-dasharray:none"
       d="m 499.82903,461.05971 c -2.59497,0.55114 -5.37316,0.20847 -7.88902,1.05 -2.83728,0.94904 -6.70874,1.62888 -7.81889,4.40708 -0.57783,1.44604 0.32459,3.31103 1.36819,4.46681 2.83671,3.14161 7.60043,3.88226 11.70023,4.93497 1.71217,0.43962 3.54797,0.16979 5.27472,0.54806 2.29843,0.50349 4.34441,2.01294 6.68298,2.27252 3.18416,0.35343 7.2339,1.18318 9.55645,-1.02349 1.14814,-1.09087 1.04715,-3.13712 0.74688,-4.69213 -0.34486,-1.78583 -1.53736,-3.37501 -2.8024,-4.68182 -1.8374,-1.89807 -4.1131,-3.6034 -6.6643,-4.28897 -1.52842,-0.41071 -3.31404,0.90305 -4.7427,0.22215 -1.47653,-0.70373 -1.35862,-3.42967 -2.90863,-3.95202 -0.82435,-0.2778 -1.65259,0.55612 -2.50351,0.73684 z"
       id="path5278-6"
       inkscape:connector-curvature="0"
       sodipodi:nodetypes="aaaaaaaaaaaaaa" />
    <path
       sodipodi:nodetypes="cc"
       style="fill:none;stroke:#ffffff;stroke-width:3.93046093;stroke-linecap:butt;stroke-linejoin:miter;stroke-miterlimit:4;stroke-opacity:1;stroke-dasharray:none"
       d="m 499.47845,357.92699 -20.4145,28.98095"
       id="path4915-6-4-1-0"
       inkscape:connector-curvature="0" />
    <path
       transform="matrix(1.2435159,1.1832341,-1.1832341,1.2435159,771.99891,-843.53236)"
       inkscape:transform-center-y="-1.677675"
       inkscape:transform-center-x="1.0960059"
       d="m 370.69677,638.36749 -0.3376,-0.43009 -0.3376,-0.43008 0.54127,-0.0773 0.54127,-0.0773 -0.20367,0.50741 z"
       inkscape:randomized="0"
       inkscape:rounded="0"
       inkscape:flatsided="false"
       sodipodi:arg2="2.4760968"
       sodipodi:arg1="1.4288993"
       sodipodi:r2="0.31567267"
       sodipodi:r1="0.63134533"
       sodipodi:cy="637.74249"
       sodipodi:cx="370.60748"
       sodipodi:sides="3"
       id="path5000-3-1-0-0-3-3"
       style="fill:none;stroke:#ffffff;stroke-width:2.28981018;stroke-miterlimit:4;stroke-opacity:1;stroke-dasharray:none"
       sodipodi:type="star" />
    <path
       sodipodi:nodetypes="cc"
       style="fill:none;stroke:#ffffff;stroke-width:3.93046093;stroke-linecap:butt;stroke-linejoin:miter;stroke-miterlimit:4;stroke-opacity:1;stroke-dasharray:none"
       d="m 522.19269,357.92699 20.4145,28.98094"
       id="path4915-6-4-8-8"
       inkscape:connector-curvature="0" />
    <path
       transform="matrix(-1.2435159,1.1832341,1.1832341,1.2435159,249.67223,-843.53237)"
       inkscape:transform-center-y="-1.677675"
       inkscape:transform-center-x="1.0960059"
       d="m 370.69677,638.36749 -0.3376,-0.43009 -0.3376,-0.43008 0.54127,-0.0773 0.54127,-0.0773 -0.20367,0.50741 z"
       inkscape:randomized="0"
       inkscape:rounded="0"
       inkscape:flatsided="false"
       sodipodi:arg2="2.4760968"
       sodipodi:arg1="1.4288993"
       sodipodi:r2="0.31567267"
       sodipodi:r1="0.63134533"
       sodipodi:cy="637.74249"
       sodipodi:cx="370.60748"
       sodipodi:sides="3"
       id="path5000-3-1-0-0-4-8"
       style="fill:none;stroke:#ffffff;stroke-width:2.28981018;stroke-miterlimit:4;stroke-opacity:1;stroke-dasharray:none"
       sodipodi:type="star" />
    <rect
       style="fill:none;stroke:#ffffff;stroke-width:3.93046093;stroke-miterlimit:4;stroke-opacity:1;stroke-dasharray:none"
       id="rect5253-5"
       width="21.456259"
       height="21.456259"
       x="500.10745"
       y="331.75235" />
    <path
       inkscape:connector-curvature="0"
       id="path4915-6-4-6-1"
       d="m 455.83838,421.92131 -20.4145,28.98095"
       style="fill:none;stroke:#ffffff;stroke-width:3.93046093;stroke-linecap:butt;stroke-linejoin:miter;stroke-miterlimit:4;stroke-opacity:1;stroke-dasharray:none"
       sodipodi:nodetypes="cc" />
    <path
       sodipodi:type="star"
       style="fill:none;stroke:#ffffff;stroke-width:2.28981018;stroke-miterlimit:4;stroke-opacity:1;stroke-dasharray:none"
       id="path5000-3-1-0-0-0-5"
       sodipodi:sides="3"
       sodipodi:cx="370.60748"
       sodipodi:cy="637.74249"
       sodipodi:r1="0.63134533"
       sodipodi:r2="0.31567267"
       sodipodi:arg1="1.4288993"
       sodipodi:arg2="2.4760968"
       inkscape:flatsided="false"
       inkscape:rounded="0"
       inkscape:randomized="0"
       d="m 370.69677,638.36749 -0.3376,-0.43009 -0.3376,-0.43008 0.54127,-0.0773 0.54127,-0.0773 -0.20367,0.50741 z"
       inkscape:transform-center-x="1.0960059"
       inkscape:transform-center-y="-1.677675"
       transform="matrix(1.2435159,1.1832341,-1.1832341,1.2435159,728.35885,-779.53803)" />
    <path
       style="fill:none;stroke:#ffffff;stroke-width:3.93046093;stroke-linecap:butt;stroke-linejoin:miter;stroke-miterlimit:4;stroke-opacity:1;stroke-dasharray:none"
       d="m 425.13317,458.2895 c 1.25463,3.51053 6.273,5.70483 8.41688,9.4536 2.14389,3.74875 -3.03641,10.33375 -8.25749,9.95524 -5.22108,-0.3785 -6.35506,-5.78415 -8.45687,-8.27535 -2.10181,-2.4912 -4.98615,-4.43097 -3.87125,-6.96968 1.1149,-2.5387 5.11297,-1.20858 6.46178,-3.44211 1.34881,-2.23352 4.45232,-4.23223 5.70695,-0.7217 z"
       id="path5272-4"
       inkscape:connector-curvature="0"
       sodipodi:nodetypes="zzzzzzz" />
    <rect
       y="394.60577"
       x="453.36975"
       height="21.456259"
       width="21.456259"
       id="rect5253-4-4"
       style="fill:none;stroke:#ffffff;stroke-width:3.93046093;stroke-miterlimit:4;stroke-opacity:1;stroke-dasharray:none" />
    <text
       sodipodi:linespacing="125%"
       id="text7756"
       y="332.97324"
       x="414.06531"
       style="font-size:29.47846031px;font-style:normal;font-weight:normal;line-height:125%;letter-spacing:0px;word-spacing:0px;fill:#ffffff;fill-opacity:1;stroke:none;font-family:helvetica"
       xml:space="preserve"><tspan
         y="332.97324"
         x="414.06531"
         id="tspan7758"
         sodipodi:role="line">tree</tspan></text>
    <text
       sodipodi:linespacing="125%"
       id="text7756-4"
       y="411.34158"
       x="601.13336"
       style="font-size:29.47846031px;font-style:normal;font-weight:normal;line-height:125%;letter-spacing:0px;word-spacing:0px;fill:#ffffff;fill-opacity:1;stroke:none;font-family:helvetica"
       xml:space="preserve"><tspan
         y="411.34158"
         x="601.13336"
         id="tspan7758-0"
         sodipodi:role="line">parent</tspan><tspan
         id="tspan7778"
         y="448.18967"
         x="601.13336"
         sodipodi:role="line" /></text>
    <g
       id="g8151"
       transform="matrix(3.9304611,0,0,3.9304611,-756.62987,383.80152)">
      <circle
         d="m 310.53684,-53.201366 c 0,1.091055 -0.88447,1.97553 -1.97553,1.97553 -1.09106,0 -1.97553,-0.884475 -1.97553,-1.97553 0,-1.091056 0.88447,-1.975531 1.97553,-1.975531 1.09106,0 1.97553,0.884475 1.97553,1.975531 z"
         r="1.9755303"
         cy="-53.201366"
         cx="308.56131"
         id="path4353-8-9"
         style="fill:none;stroke:#ffffff;stroke-width:1;stroke-miterlimit:4;stroke-opacity:1;stroke-dasharray:none"
         sodipodi:cx="308.56131"
         sodipodi:cy="-53.201366"
         sodipodi:rx="1.9755303"
         sodipodi:ry="1.9755303" />
      <path
         inkscape:connector-curvature="0"
         id="path4355-28-8"
         d="m 308.5613,-47.818539 0,-3.602563"
         style="fill:none;stroke:#ffffff;stroke-width:1;stroke-linecap:butt;stroke-linejoin:miter;stroke-miterlimit:4;stroke-opacity:1;stroke-dasharray:none" />
      <g
         transform="matrix(0.58226152,0,0,0.58226152,245.51717,-425.45162)"
         id="g4376-2-2"
         style="stroke-width:1.71744132;stroke-miterlimit:4;stroke-dasharray:none">
        <path
           style="fill:none;stroke:#ffffff;stroke-width:1.71744132;stroke-linecap:butt;stroke-linejoin:miter;stroke-miterlimit:4;stroke-opacity:1;stroke-dasharray:none"
           d="m 104.94989,653.60447 3.40927,-5.3033"
           id="path4357-3-4"
           inkscape:connector-curvature="0" />
        <path
           style="fill:none;stroke:#ffffff;stroke-width:1.71744132;stroke-linecap:butt;stroke-linejoin:miter;stroke-miterlimit:4;stroke-opacity:1;stroke-dasharray:none"
           d="m 111.59932,653.60447 -3.40927,-5.3033"
           id="path4357-7-0-5"
           inkscape:connector-curvature="0" />
      </g>
      <path
         inkscape:connector-curvature="0"
         id="path4355-0-7-1"
         d="m 310.36259,-49.7333 -3.60256,0"
         style="fill:none;stroke:#ffffff;stroke-width:1;stroke-linecap:butt;stroke-linejoin:miter;stroke-miterlimit:4;stroke-opacity:1;stroke-dasharray:none" />
    </g>
    <g
       id="g8159"
       transform="matrix(3.9304611,0,0,3.9304611,-755.40628,383.80152)">
      <g
         id="g8086"
         transform="translate(0.62500001,0)">
        <circle
           d="m 309.60053,-38.756981 c 0,1.091055 -0.88447,1.97553 -1.97553,1.97553 -1.09106,0 -1.97553,-0.884475 -1.97553,-1.97553 0,-1.091055 0.88447,-1.97553 1.97553,-1.97553 1.09106,0 1.97553,0.884475 1.97553,1.97553 z"
           style="fill:none;stroke:#ffffff;stroke-width:1;stroke-miterlimit:4;stroke-opacity:1;stroke-dasharray:none"
           id="path4353-8-9-5"
           cx="307.625"
           cy="-38.756981"
           r="1.9755303"
           sodipodi:cx="307.625"
           sodipodi:cy="-38.756981"
           sodipodi:rx="1.9755303"
           sodipodi:ry="1.9755303" />
        <path
           style="fill:none;stroke:#ffffff;stroke-width:1;stroke-linecap:butt;stroke-linejoin:miter;stroke-miterlimit:4;stroke-opacity:1;stroke-dasharray:none"
           d="m 307.62499,-33.374154 0,-3.602563"
           id="path4355-28-8-6"
           inkscape:connector-curvature="0" />
        <g
           style="stroke-width:1.71744132;stroke-miterlimit:4;stroke-dasharray:none"
           id="g4376-2-2-3"
           transform="matrix(0.58226152,0,0,0.58226152,244.58085,-411.00723)">
          <path
             inkscape:connector-curvature="0"
             id="path4357-3-4-9"
             d="m 104.94989,653.60447 3.40927,-5.3033"
             style="fill:none;stroke:#ffffff;stroke-width:1.71744132;stroke-linecap:butt;stroke-linejoin:miter;stroke-miterlimit:4;stroke-opacity:1;stroke-dasharray:none" />
          <path
             inkscape:connector-curvature="0"
             id="path4357-7-0-5-6"
             d="m 111.59932,653.60447 -3.40927,-5.3033"
             style="fill:none;stroke:#ffffff;stroke-width:1.71744132;stroke-linecap:butt;stroke-linejoin:miter;stroke-miterlimit:4;stroke-opacity:1;stroke-dasharray:none" />
        </g>
        <path
           style="fill:none;stroke:#ffffff;stroke-width:1;stroke-linecap:butt;stroke-linejoin:miter;stroke-miterlimit:4;stroke-opacity:1;stroke-dasharray:none"
           d="m 309.42628,-35.288915 -3.60256,0"
           id="path4355-0-7-1-1"
           inkscape:connector-curvature="0" />
      </g>
    </g>
    <text
       sodipodi:linespacing="125%"
       id="text7756-3"
       y="207.07832"
       x="480.72458"
       style="font-size:29.47846031px;font-style:normal;font-weight:normal;line-height:125%;letter-spacing:0px;word-spacing:0px;fill:#ffffff;fill-opacity:1;stroke:none;font-family:helvetica"
       xml:space="preserve"><tspan
         y="207.07832"
         x="480.72458"
         id="tspan7758-7"
         sodipodi:role="line">author &amp; author date</tspan><tspan
         id="tspan7788"
         y="243.92639"
         x="480.72458"
         sodipodi:role="line">commiter &amp; commit date</tspan></text>
    <path
       inkscape:connector-curvature="0"
       id="path4915-6-4-9-7"
       d="m 650.44592,433.80081 0.0586,97.40638"
       style="fill:none;stroke:#ffffff;stroke-width:3.93046117;stroke-linecap:butt;stroke-linejoin:miter;stroke-miterlimit:4;stroke-opacity:1;stroke-dasharray:none"
       sodipodi:nodetypes="cc" />
    <path
       sodipodi:type="star"
       style="fill:none;stroke:#ffffff;stroke-width:1;stroke-miterlimit:4;stroke-opacity:1;stroke-dasharray:none"
       id="path5000-3-1-0-0-48-5"
       sodipodi:sides="3"
       sodipodi:cx="370.60748"
       sodipodi:cy="637.74249"
       sodipodi:r1="0.63134533"
       sodipodi:r2="0.31567267"
       sodipodi:arg1="1.4288993"
       sodipodi:arg2="2.4760968"
       inkscape:flatsided="false"
       inkscape:rounded="0"
       inkscape:randomized="0"
       d="m 370.69677,638.36749 -0.3376,-0.43009 -0.3376,-0.43008 0.54127,-0.0773 0.54127,-0.0773 -0.20367,0.50741 z"
       inkscape:transform-center-x="1.0960059"
       inkscape:transform-center-y="-1.677675"
       transform="matrix(-4.6653496,0.69310113,0.69310113,4.6653496,1937.4901,-2704.3956)" />
    <text
       sodipodi:linespacing="125%"
       id="text7756-4-0"
       y="330.9653"
       x="693.49915"
       style="font-size:29.47846031px;font-style:normal;font-weight:normal;line-height:125%;letter-spacing:0px;word-spacing:0px;fill:#ffffff;fill-opacity:1;stroke:none;font-family:helvetica"
       xml:space="preserve"><tspan
         y="330.9653"
         x="693.49915"
         id="tspan7758-0-1"
         sodipodi:role="line">commit message</tspan><tspan
         id="tspan7778-3"
         y="367.81339"
         x="693.49915"
         sodipodi:role="line" /></text>
  </g>
</svg>
