<?xml version="1.0" encoding="UTF-8" standalone="no"?>
<!-- Created with Inkscape (http://www.inkscape.org/) -->

<svg
   xmlns:dc="http://purl.org/dc/elements/1.1/"
   xmlns:cc="http://creativecommons.org/ns#"
   xmlns:rdf="http://www.w3.org/1999/02/22-rdf-syntax-ns#"
   xmlns:svg="http://www.w3.org/2000/svg"
   xmlns="http://www.w3.org/2000/svg"
   xmlns:sodipodi="http://sodipodi.sourceforge.net/DTD/sodipodi-0.dtd"
   xmlns:inkscape="http://www.inkscape.org/namespaces/inkscape"
   width="750.10394"
   height="749.98108"
   id="svg4146"
   version="1.1"
   inkscape:version="0.48.5 r10040"
   sodipodi:docname="New document 13">
  <defs
     id="defs4148" />
  <sodipodi:namedview
     id="base"
     pagecolor="#ffffff"
     bordercolor="#666666"
     borderopacity="1.0"
     inkscape:pageopacity="0.0"
     inkscape:pageshadow="2"
     inkscape:zoom="0.35"
     inkscape:cx="95.462058"
     inkscape:cy="95.378377"
     inkscape:document-units="px"
     inkscape:current-layer="layer1"
     showgrid="false"
     fit-margin-top="0"
     fit-margin-left="0"
     fit-margin-right="0"
     fit-margin-bottom="0"
     inkscape:window-width="1280"
     inkscape:window-height="751"
     inkscape:window-x="0"
     inkscape:window-y="0"
     inkscape:window-maximized="1" />
  <metadata
     id="metadata4151">
    <rdf:RDF>
      <cc:Work
         rdf:about="">
        <dc:format>image/svg+xml</dc:format>
        <dc:type
           rdf:resource="http://purl.org/dc/dcmitype/StillImage" />
        <dc:title></dc:title>
      </cc:Work>
    </rdf:RDF>
  </metadata>
  <g
     inkscape:label="Layer 1"
     inkscape:groupmode="layer"
     id="layer1"
     transform="translate(-279.53794,122.24055)">
    <circle
       transform="matrix(3.9304611,0,0,3.9304611,-807.72586,-2455.829)"
       sodipodi:ry="90.408653"
       sodipodi:rx="90.408653"
       sodipodi:cy="689.13031"
       sodipodi:cx="372.04724"
       d="m 462.45589,689.13031 c 0,49.93132 -40.47733,90.40865 -90.40865,90.40865 -49.93132,0 -90.40865,-40.47733 -90.40865,-90.40865 0,-49.93132 40.47733,-90.40865 90.40865,-90.40865 49.93132,0 90.40865,40.47733 90.40865,90.40865 z"
       style="fill:none;stroke:#ffffff;stroke-width:10;stroke-linecap:butt;stroke-linejoin:miter;stroke-miterlimit:4;stroke-opacity:1;stroke-dasharray:none"
       id="path3301-2"
       cx="372.04724"
       cy="689.13031"
       r="90.408653" />
    <text
       xml:space="preserve"
       style="font-size:157.21844482px;font-style:normal;font-weight:normal;line-height:125%;letter-spacing:0px;word-spacing:0px;fill:#ffffff;fill-opacity:1;stroke:none;font-family:sans-serif"
       x="475.15802"
       y="440.94046"
       id="text4715"
       sodipodi:linespacing="125%"><tspan
         sodipodi:role="line"
         id="tspan4717"
         x="475.15802"
         y="440.94046">DAG</tspan></text>
    <circle
       sodipodi:ry="3.3928573"
       sodipodi:rx="3.3928573"
       sodipodi:cy="635.74976"
       sodipodi:cx="409.36249"
       transform="matrix(3.9304611,0,0,3.9304611,-807.72586,-2455.829)"
       style="fill:none;stroke:#ffffff;stroke-width:1;stroke-miterlimit:4;stroke-opacity:1;stroke-dasharray:none"
       id="path4353-9-0"
       cx="409.36249"
       cy="635.74976"
       r="3.3928573"
       d="m 412.75535,635.74976 c 0,1.87382 -1.51904,3.39285 -3.39286,3.39285 -1.87383,0 -3.39286,-1.51903 -3.39286,-3.39285 0,-1.87383 1.51903,-3.39286 3.39286,-3.39286 1.87382,0 3.39286,1.51903 3.39286,3.39286 z" />
    <circle
       sodipodi:ry="3.3928573"
       sodipodi:rx="3.3928573"
       sodipodi:cy="669.14264"
       sodipodi:cx="409.36249"
       transform="matrix(3.9304611,0,0,3.9304611,-807.72586,-2455.829)"
       style="fill:none;stroke:#ffffff;stroke-width:1;stroke-miterlimit:4;stroke-opacity:1;stroke-dasharray:none"
       id="path4353-9-0-6"
       cx="409.36249"
       cy="669.14264"
       r="3.3928573"
       d="m 412.75535,669.14264 c 0,1.87382 -1.51904,3.39286 -3.39286,3.39286 -1.87383,0 -3.39286,-1.51904 -3.39286,-3.39286 0,-1.87382 1.51903,-3.39286 3.39286,-3.39286 1.87382,0 3.39286,1.51904 3.39286,3.39286 z" />
    <circle
       sodipodi:ry="3.3928573"
       sodipodi:rx="3.3928573"
       sodipodi:cy="689.32123"
       sodipodi:cx="409.36249"
       transform="matrix(3.9304611,0,0,3.9304611,-807.72586,-2455.829)"
       style="fill:none;stroke:#ffffff;stroke-width:1;stroke-miterlimit:4;stroke-opacity:1;stroke-dasharray:none"
       id="path4353-9-0-4"
       cx="409.36249"
       cy="689.32123"
       r="3.3928573"
       d="m 412.75535,689.32123 c 0,1.87382 -1.51904,3.39286 -3.39286,3.39286 -1.87383,0 -3.39286,-1.51904 -3.39286,-3.39286 0,-1.87383 1.51903,-3.39286 3.39286,-3.39286 1.87382,0 3.39286,1.51903 3.39286,3.39286 z" />
    <circle
       sodipodi:ry="3.3928573"
       sodipodi:rx="3.3928573"
       sodipodi:cy="652.44617"
       sodipodi:cx="393.20175"
       transform="matrix(3.9304611,0,0,3.9304611,-807.72586,-2455.829)"
       style="fill:none;stroke:#ffffff;stroke-width:1;stroke-miterlimit:4;stroke-opacity:1;stroke-dasharray:none"
       id="path4353-9-0-2"
       cx="393.20175"
       cy="652.44617"
       r="3.3928573"
       d="m 396.59461,652.44617 c 0,1.87382 -1.51903,3.39285 -3.39286,3.39285 -1.87382,0 -3.39286,-1.51903 -3.39286,-3.39285 0,-1.87383 1.51904,-3.39286 3.39286,-3.39286 1.87383,0 3.39286,1.51903 3.39286,3.39286 z" />
    <path
       style="fill:none;stroke:#ffffff;stroke-width:3.93046117px;stroke-linecap:butt;stroke-linejoin:miter;stroke-opacity:1"
       d="M 790.90489,53.664129 748.09096,97.881816"
       id="path4915"
       inkscape:connector-curvature="0" />
    <path
       style="fill:none;stroke:#ffffff;stroke-width:3.93046117px;stroke-linecap:butt;stroke-linejoin:miter;stroke-opacity:1"
       d="m 748.09092,119.2888 42.81393,44.21768"
       id="path4915-5"
       inkscape:connector-curvature="0" />
    <circle
       sodipodi:ry="3.3928573"
       sodipodi:rx="3.3928573"
       sodipodi:cy="652.44617"
       sodipodi:cx="425.52319"
       transform="matrix(3.9304611,0,0,3.9304611,-807.72586,-2455.829)"
       style="fill:none;stroke:#ffffff;stroke-width:1;stroke-miterlimit:4;stroke-opacity:1;stroke-dasharray:none"
       id="path4353-9-0-9"
       cx="425.52319"
       cy="652.44617"
       r="3.3928573"
       d="m 428.91605,652.44617 c 0,1.87382 -1.51903,3.39285 -3.39286,3.39285 -1.87382,0 -3.39285,-1.51903 -3.39285,-3.39285 0,-1.87383 1.51903,-3.39286 3.39285,-3.39286 1.87383,0 3.39286,1.51903 3.39286,3.39286 z" />
    <path
       style="fill:none;stroke:#ffffff;stroke-width:3.93046117px;stroke-linecap:butt;stroke-linejoin:miter;stroke-opacity:1"
       d="m 854.42393,119.28884 -42.81392,44.21768"
       id="path4915-0"
       inkscape:connector-curvature="0" />
    <path
       style="fill:none;stroke:#ffffff;stroke-width:3.93046117px;stroke-linecap:butt;stroke-linejoin:miter;stroke-opacity:1"
       d="m 811.61008,53.664129 42.81393,44.217687"
       id="path4915-6"
       inkscape:connector-curvature="0" />
    <path
       style="fill:none;stroke:#ffffff;stroke-width:3.93046117px;stroke-linecap:butt;stroke-linejoin:miter;stroke-opacity:1"
       d="m 801.25749,189.09469 0,49.48172"
       id="path4966"
       inkscape:connector-curvature="0" />
    <path
       sodipodi:type="star"
       style="fill:none;stroke:#ffffff;stroke-width:1;stroke-miterlimit:4;stroke-opacity:1;stroke-dasharray:none"
       id="path5000"
       sodipodi:sides="3"
       sodipodi:cx="370.60748"
       sodipodi:cy="637.74249"
       sodipodi:r1="0.63134533"
       sodipodi:r2="0.32274058"
       sodipodi:arg1="1.4288993"
       sodipodi:arg2="2.4760968"
       inkscape:flatsided="false"
       inkscape:rounded="0"
       inkscape:randomized="0"
       d="m 370.69677,638.36749 -0.34316,-0.42572 -0.33204,-0.43445 0.54027,-0.0843 0.54227,-0.0703 -0.19711,0.51004 z"
       inkscape:transform-center-x="-5.7299223"
       inkscape:transform-center-y="-5.7601973"
       transform="matrix(2.9387837,3.6890952,-3.6890952,2.9387837,2014.8315,-3146.8698)" />
    <path
       sodipodi:type="star"
       style="fill:none;stroke:#ffffff;stroke-width:1;stroke-miterlimit:4;stroke-opacity:1;stroke-dasharray:none"
       id="path5000-3"
       sodipodi:sides="3"
       sodipodi:cx="370.60748"
       sodipodi:cy="637.74249"
       sodipodi:r1="0.63134533"
       sodipodi:r2="0.32274058"
       sodipodi:arg1="1.4288993"
       sodipodi:arg2="2.4760968"
       inkscape:flatsided="false"
       inkscape:rounded="0"
       inkscape:randomized="0"
       d="m 370.69677,638.36749 -0.34316,-0.42572 -0.33204,-0.43445 0.54027,-0.0843 0.54227,-0.0703 -0.19711,0.51004 z"
       inkscape:transform-center-x="-5.729938"
       inkscape:transform-center-y="-5.7601814"
       transform="matrix(2.9387837,3.6890952,-3.6890952,2.9387837,2078.2722,-3081.3603)" />
    <path
       sodipodi:type="star"
       style="fill:none;stroke:#ffffff;stroke-width:1;stroke-miterlimit:4;stroke-opacity:1;stroke-dasharray:none"
       id="path5000-3-1"
       sodipodi:sides="3"
       sodipodi:cx="370.60748"
       sodipodi:cy="637.74249"
       sodipodi:r1="0.63134533"
       sodipodi:r2="0.32274058"
       sodipodi:arg1="1.4288993"
       sodipodi:arg2="2.4760968"
       inkscape:flatsided="false"
       inkscape:rounded="0"
       inkscape:randomized="0"
       d="m 370.69677,638.36749 -0.34316,-0.42572 -0.33204,-0.43445 0.54027,-0.0843 0.54227,-0.0703 -0.19711,0.51004 z"
       inkscape:transform-center-x="5.729938"
       inkscape:transform-center-y="-5.7601751"
       transform="matrix(-2.9387837,3.6890952,3.6890952,2.9387837,-475.75739,-3081.3603)" />
    <path
       sodipodi:type="star"
       style="fill:none;stroke:#ffffff;stroke-width:1;stroke-miterlimit:4;stroke-opacity:1;stroke-dasharray:none"
       id="path5000-3-1-0"
       sodipodi:sides="3"
       sodipodi:cx="370.60748"
       sodipodi:cy="637.74249"
       sodipodi:r1="0.63134533"
       sodipodi:r2="0.32274058"
       sodipodi:arg1="1.4288993"
       sodipodi:arg2="2.4760968"
       inkscape:flatsided="false"
       inkscape:rounded="0"
       inkscape:randomized="0"
       d="m 370.69677,638.36749 -0.34316,-0.42572 -0.33204,-0.43445 0.54027,-0.0843 0.54227,-0.0703 -0.19711,0.51004 z"
       inkscape:transform-center-x="5.7299379"
       inkscape:transform-center-y="-5.7602162"
       transform="matrix(-2.9387837,3.6890952,3.6890952,2.9387837,-412.28492,-3146.7899)" />
    <path
       style="fill:none;stroke:#ffffff;stroke-width:4.71655369;stroke-miterlimit:4;stroke-opacity:1;stroke-dasharray:none"
       d="m 801.25234,237.00402 c 0.85306,-1.49267 1.7114,-2.98231 2.58058,-4.46567 -1.71926,0.008 -3.43845,0.008 -5.15771,-0.002 0.86628,1.48504 1.72709,2.97315 2.57713,4.46759 z"
       id="path5000-3-1-0-3"
       inkscape:connector-curvature="0" />
    <text
       xml:space="preserve"
       style="font-size:50.96690369px;font-style:normal;font-weight:normal;line-height:125%;letter-spacing:0px;word-spacing:0px;fill:#ffffff;fill-opacity:1;stroke:none;font-family:sans-serif"
       x="401.92679"
       y="117.77927"
       id="text5086"
       sodipodi:linespacing="125%"><tspan
         sodipodi:role="line"
         id="tspan5088"
         x="401.92679"
         y="117.77927"
         style="font-size:58.95691681px;font-style:normal;font-variant:normal;font-weight:normal;font-stretch:normal;font-family:monospace;-inkscape-font-specification:monospace">Directed</tspan><tspan
         sodipodi:role="line"
         x="401.92679"
         y="191.47542"
         id="tspan5090"
         style="font-size:58.95691681px;font-style:normal;font-variant:normal;font-weight:normal;font-stretch:normal;font-family:monospace;-inkscape-font-specification:monospace">Acyclic</tspan><tspan
         sodipodi:role="line"
         x="401.92679"
         y="265.17157"
         id="tspan5092"
         style="font-size:58.95691681px;font-style:normal;font-variant:normal;font-weight:normal;font-stretch:normal;font-family:monospace;-inkscape-font-specification:monospace">Graph</tspan></text>
  </g>
</svg>
