<?xml version="1.0"?>
<svg version="1.1" xmlns="http://www.w3.org/2000/svg" xmlns:xlink="http://www.w3.org/1999/xlink" width="120" height="120">
    <desc iVinci="yes" version="4.5" gridStep="20" showGrid="no" snapToGrid="yes" codePlatform="0"/>
    <g id="Layer1" opacity="1">
        <g id="Shape1">
            <desc shapeID="1" type="0" basicInfo-basicType="0" basicInfo-roundedRectRadius="12" basicInfo-polygonSides="6" basicInfo-starPoints="5" bounding="rect(-21.7193,-21.1832,43.4387,42.3665)" text="" font-familyName="" font-pixelSize="20" font-bold="0" font-underline="0" font-alignment="1" strokeStyle="0" markerStart="0" markerEnd="0" shadowEnabled="0" shadowOffsetX="0" shadowOffsetY="2" shadowBlur="4" shadowOpacity="160" blurEnabled="0" blurRadius="4" transform="matrix(2.3305,0,0,2.3305,61.1137,59.6177)" pers-center="0,0" pers-size="0,0" pers-start="0,0" pers-end="0,0" locked="0" mesh="" flag=""/>
            <path id="shapePath1" d="M61.1091,10.2502 C33.1617,10.2502 10.4968,32.912 10.4968,60.8686 C10.4968,83.2321 24.9988,102.202 45.1125,108.896 C47.645,109.362 48.5679,107.799 48.5679,106.456 C48.5679,105.254 48.5244,102.072 48.4995,97.849 C34.4202,100.907 31.4496,91.0626 31.4496,91.0626 C29.147,85.2146 25.8284,83.6578 25.8284,83.6578 C21.2327,80.5194 26.1764,80.5816 26.1764,80.5816 C31.2569,80.9389 33.9292,85.7988 33.9292,85.7988 C38.4442,93.5329 45.7775,91.2988 48.6611,90.003 C49.121,86.7341 50.4292,84.503 51.8741,83.2383 C40.6349,81.9612 28.8176,77.6172 28.8176,58.2212 C28.8176,52.6964 30.7908,48.1752 34.0287,44.6391 C33.5066,43.3588 31.7696,38.21 34.5258,31.2433 C34.5258,31.2433 38.7736,29.8824 48.4436,36.4326 C52.48,35.3078 56.8116,34.7484 61.1153,34.7266 C65.4158,34.7484 69.7444,35.3078 73.787,36.4326 C83.4508,29.8824 87.6923,31.2433 87.6923,31.2433 C90.4547,38.21 88.7177,43.3588 88.1988,44.6391 C91.4429,48.1752 93.4005,52.6964 93.4005,58.2212 C93.4005,77.6669 81.5646,81.9457 70.2912,83.1979 C72.1059,84.761 73.7248,87.8496 73.7248,92.5696 C73.7248,99.3374 73.6627,104.797 73.6627,106.456 C73.6627,107.811 74.5763,109.387 77.1429,108.892 C97.2411,102.184 111.731,83.2259 111.731,60.8686 C111.731,32.912 89.0657,10.2502 61.1091,10.2502 Z" style="stroke:none;fill-rule:evenodd;fill:#ffffff;fill-opacity:1;"/>
        </g>
    </g>
</svg>
