<?xml version="1.0" encoding="utf-8"?>
<!-- Generator: Adobe Illustrator 18.1.1, SVG Export Plug-In . SVG Version: 6.00 Build 0)  -->
<svg version="1.1" id="Layer_1" xmlns="http://www.w3.org/2000/svg" xmlns:xlink="http://www.w3.org/1999/xlink" x="0px" y="0px"
	 viewBox="0 0 595.3 841.9" enable-background="new 0 0 595.3 841.9" xml:space="preserve">
<g>
	<defs>
		<rect id="SVGID_1_" x="9.1" y="321.7" width="576.9" height="199.6"/>
	</defs>
	<clipPath id="SVGID_2_">
		<use xlink:href="#SVGID_1_"  overflow="visible"/>
	</clipPath>
	<path clip-path="url(#SVGID_2_)" d="M437.4,350.1c0,22.1-9,30.1-33.9,32c0.3-19.2,3.4-33.3,7.6-42.4c4.2-9.1,9-13.3,13.4-13.3
		C431,326.4,437.4,336,437.4,350.1 M471.3,354.9c0-11.7-6.4-19.5-15.4-24.8c-9.2-5.1-20.7-7.2-30.8-7.2c-18.2,0-34.4,7.2-45.6,19.5
		c-11.5,12.3-18.2,29-18.2,48c0,16,4.8,32,14.5,44.2c9.8,12.3,24.1,20.5,43.1,20.5c15.7,0,27.4-4.8,35.8-11.2
		c8.4-6.4,13.7-14.1,15.9-20.5l-3.4-1.9c-1.4,2.1-4.8,5.6-9.5,8.5c-4.8,2.9-11.5,5.1-19.3,5.1c-13.2,0-21.3-7.5-26.6-17.3
		c-5.6-9.9-7.8-22.4-8.1-32.2c15.4-0.8,31.9-1.9,45-6.1C462,375.2,471.3,367.7,471.3,354.9"/>
	<path clip-path="url(#SVGID_2_)" d="M552.9,352.6c0,21.6-8.7,29.4-33.1,31.2c0.3-18.7,3.3-32.5,7.4-41.4c4.1-8.9,8.7-13,13.1-13
		C546.6,329.4,552.9,338.8,552.9,352.6 M571,333.1c-9-4.9-20.2-7-30.1-7c-17.8,0-33.6,7-44.6,19c-11.2,12-17.8,28.4-17.8,46.9
		c0,15.6,4.6,31.2,14.2,43.2c9.6,12,23.5,20,42.1,20c15.3,0,26.8-4.7,35-10.9c8.2-6.2,13.4-13.8,15.6-20l-3.3-1.8
		c-1.4,2.1-4.6,5.5-9.3,8.3c-4.6,2.9-11.2,4.9-18.9,4.9c-12.8,0-20.8-7.3-26-16.9c-5.5-9.6-7.7-21.9-7.9-31.5c15-0.8,31.2-1.8,44-6
		c12.8-4.2,21.9-11.5,21.9-24C586,345.8,579.7,338.3,571,333.1"/>
	<path clip-path="url(#SVGID_2_)" d="M363.6,345.4c-0.3-7.4-3.7-12.9-8.9-16.7c-5.2-3.8-12.1-5.7-19-5.7c-12.4,0-23,8.8-29,17.2
		v-2.7c-0.3-1.4-0.3-3-0.3-4.7v-6.6h-56.9v3.6h17.2v122.1h-17.2v3.6h75.6v-3.6h-17.2V358c0-7.9,4-16.1,9.2-21.9
		c5.2-5.7,11.8-9.6,18.4-9.6c7.8,0,12.4,2.2,14.7,3.6c-5.7-1.1-10.9,0.5-14.7,3.6c-3.7,3.3-6.3,7.7-6.3,12.9c0,9,8,16.4,17.5,16.4
		C356.7,362.9,363.9,355,363.6,345.4"/>
	<path clip-path="url(#SVGID_2_)" d="M207.4,386.4c0,10.7-1.1,24.6-5.5,35.9c-4.4,11.5-12.1,20.2-25.3,20.2c-8.5,0-14-4.2-16.5-7.3
		v-93c3.3-4.2,11-10,19.5-10c8.8,0,15.7,6,20.4,16C204.6,358.1,207.4,371.7,207.4,386.4 M250.6,388.5c0-24.1-8.8-40.4-20.4-50.8
		S204.1,323,193.9,323c-8.8,0-16.2,2.1-22.3,5c-6.1,3.1-10.2,6.6-12.4,9.7c0-0.3,0-0.8,0-2.1c-0.3-2.4-0.6-5.5-0.6-9.4h-54.5v3.4
		h16.5v191.8c7.1-9.4,18.4-15.4,31.9-15.4c2.5,0,5,0.3,7.5,0.7v-66.2c1.4,2.4,5.2,5.2,10.7,7.9c5.5,2.6,13.2,4.7,22,4.7
		c10.7,0,25-3.9,36.9-14.2C241.5,428.6,250.6,412.6,250.6,388.5"/>
	<path clip-path="url(#SVGID_2_)" d="M35.3,342.2c0-9.6,9.5-16.8,19.3-16.8c10.3,0,18.4,4.5,24.3,11.2c5.6,6.6,8.9,15.7,10.1,25h3.6
		V331c-11.2-5.3-25.1-9.3-38.8-9.3c-12.6,0-24,4.8-31.8,12.2c-8.1,7.7-12.8,18.6-12.8,31.4c0,11.4,3.9,19.9,10.6,26.3
		c6.7,6.6,16.2,11.2,27.4,15.2c5.9,2.1,13.4,4.5,19.3,8.5c5.6,4.3,10.1,9.6,10.1,17c0,6.1-3.1,10.6-7.5,13.8
		c-4.5,3.5-10.6,5.3-16.5,5.3c-12,0-20.9-6.1-27.4-14.6c-6.7-8.5-10.1-19.7-10.9-30h-3.9v39.1c12.6,6.1,28.5,9.3,43.3,9.3
		c12.6,0,25.1-4,34.3-11.2c9.2-7.2,15.4-17.6,15.4-31.1c0-12.8-3.1-21.8-9.5-29.3c-6.4-7.2-15.9-12.2-28.5-16.8
		c-8.7-3.2-16.2-5.9-21.5-9.6C38.4,353.6,35.3,349.3,35.3,342.2"/>
</g>
</svg>
