<?xml version="1.0" encoding="utf-8"?>
<!-- Generator: Adobe Illustrator 18.1.1, SVG Export Plug-In . SVG Version: 6.00 Build 0)  -->
<svg version="1.1" id="Layer_1" xmlns="http://www.w3.org/2000/svg" xmlns:xlink="http://www.w3.org/1999/xlink" x="0px" y="0px"
	 viewBox="0 0 595.3 841.9" enable-background="new 0 0 595.3 841.9" xml:space="preserve">
<g>
	<defs>
		<rect id="SVGID_1_" x="186" y="308.9" width="225" height="225"/>
	</defs>
	<clipPath id="SVGID_2_">
		<use xlink:href="#SVGID_1_"  overflow="visible"/>
	</clipPath>
	<path clip-path="url(#SVGID_2_)" d="M188.3,420.9c-0.8-0.8-1.6-1.7-2.2-2.7c0,1.1-0.1,2.2-0.1,3.2c0,2.4,0.1,4.7,0.2,7.1
		c0.5,3.6,1.8,7.3,4.1,10.2c2.5,3.4,6,5.8,10.8,5.8c2.3,0,4.7-0.7,6.5-2.1c1.8-1.3,3-3,3-5.4c0-2.9-1.8-5-4-6.7
		c-2.3-1.6-5.3-2.5-7.6-3.4C194.6,425.3,190.9,423.5,188.3,420.9 M260,432.9c1.7-4.4,2.2-9.9,2.2-14.1c0-5.8-1.1-11.2-2.9-15.1
		c-1.8-3.9-4.6-6.3-8-6.3c-3.4,0-6.4,2.3-7.7,3.9V438c1,1.2,3.1,2.9,6.5,2.9C255.3,440.9,258.3,437.5,260,432.9 M352.8,404.5
		c0-5.6-2.5-9.3-5.1-9.3c-1.8,0-3.6,1.7-5.3,5.2c-1.7,3.6-2.9,9.1-3,16.7C349.3,416.4,352.8,413.2,352.8,404.5 M366.1,406.4
		c0,5-3.6,8-8.8,9.7c-5.2,1.7-11.7,2.1-17.7,2.4c0.1,3.9,1,8.8,3.2,12.7c2.1,3.9,5.3,6.8,10.5,6.8c3.1,0,5.7-0.8,7.6-2
		c1.9-1.2,3.2-2.5,3.7-3.4l1.3,0.7c-0.9,2.5-3,5.6-6.3,8.1c-3.3,2.5-7.9,4.4-14.1,4.4c-7.5,0-13.1-3.3-17-8.1
		c-3.9-4.8-5.7-11.1-5.7-17.4c0-7.5,2.6-14.1,7.2-18.9c4.4-4.8,10.8-7.7,18-7.7c4,0,8.5,0.8,12.1,2.8
		C363.6,398.7,366.1,401.8,366.1,406.4 M323.7,402.6c0.1,3.8-2.7,6.9-6.7,6.9c-3.7,0-6.9-2.9-6.9-6.5c0-2,1-3.8,2.5-5.1
		c1.5-1.2,3.5-1.8,5.8-1.4c-0.9-0.5-2.7-1.4-5.8-1.4c-2.6,0-5.2,1.5-7.2,3.8c-2,2.3-3.6,5.5-3.6,8.6v37h6.8v1.4h-29.8v-1.4h6.8
		v-48.1h-6.8v-1.4h22.4v2.6c0,0.6,0,1.3,0.1,1.8c0,0.6,0,1,0,1.1c2.4-3.3,6.6-6.8,11.4-6.8c2.7,0,5.4,0.8,7.5,2.3
		C322.3,397.6,323.6,399.7,323.7,402.6 M271.2,399.6c4.6,4.1,8,10.5,8,20s-3.6,15.8-8.2,19.8c-4.7,4-10.3,5.6-14.5,5.6
		c-3.5,0-6.5-0.8-8.7-1.9c-2.2-1-3.7-2.2-4.2-3.1v26.1c-1-0.2-2-0.3-3-0.3c-5.3,0-9.8,2.4-12.5,6.1v-75.5h-6.5V395H243
		c0,1.5,0.1,2.8,0.2,3.7c0,0.5,0,0.7,0,0.8c0.9-1.2,2.5-2.6,4.9-3.8c2.4-1.1,5.3-2,8.8-2C260.9,393.8,266.6,395.5,271.2,399.6
		 M405.6,397.2c1.3,0.8,2.4,1.6,3.3,2.7c-10-51.9-55.6-91-110.4-91c-54.5,0-99.9,38.8-110.3,90.2c0.3-0.3,0.6-0.7,0.9-1
		c3.1-2.9,7.6-4.8,12.5-4.8c5.4,0,10.9,1.6,15.3,3.7v12h-1.4c-0.4-3.7-1.8-7.2-4-9.8c-2.3-2.6-5.5-4.4-9.6-4.4
		c-3.8,0-7.6,2.8-7.6,6.6c0,2.8,1.2,4.5,3.3,6c2.1,1.5,5.1,2.5,8.5,3.8c4.9,1.8,8.7,3.8,11.2,6.6c2.5,2.9,3.7,6.5,3.7,11.5
		c0,5.3-2.4,9.4-6.1,12.3c-3.6,2.8-8.6,4.4-13.5,4.4c-4.5,0-9.2-0.7-13.3-2.2c10.4,51.4,55.8,90.2,110.3,90.2
		c57.1,0,104.2-42.5,111.5-97.5c-1.1,1.8-2.7,3.6-4.8,5.2c-3.3,2.5-7.8,4.4-13.9,4.4c-7.4,0-13-3.2-16.8-8c-3.8-4.8-5.7-11-5.7-17.2
		c0-7.4,2.6-13.9,7.1-18.7c4.4-4.8,10.7-7.6,17.8-7.6C397.5,394.4,402,395.3,405.6,397.2 M388.2,401c-1.6,3.5-2.8,9-2.9,16.5
		c9.7-0.7,13.2-3.8,13.2-12.4c0-5.5-2.5-9.2-5-9.2C391.7,395.8,389.8,397.4,388.2,401 M411,421.4c0-3.5-0.2-6.9-0.5-10.3
		c-1.4,2.5-4.2,4.3-7.6,5.4c-5.1,1.7-11.5,2.1-17.5,2.4c0.1,3.8,1,8.7,3.2,12.6c2.1,3.8,5.2,6.7,10.3,6.7c3.1,0,5.7-0.8,7.5-2
		c1.9-1.1,3.2-2.5,3.7-3.3l0.3,0.2C410.8,429.2,411,425.3,411,421.4"/>
</g>
</svg>
