<?xml version="1.0" encoding="UTF-8" standalone="no"?>
<!-- Created with Inkscape (http://www.inkscape.org/) -->

<svg
   xmlns:dc="http://purl.org/dc/elements/1.1/"
   xmlns:cc="http://creativecommons.org/ns#"
   xmlns:rdf="http://www.w3.org/1999/02/22-rdf-syntax-ns#"
   xmlns:svg="http://www.w3.org/2000/svg"
   xmlns="http://www.w3.org/2000/svg"
   xmlns:sodipodi="http://sodipodi.sourceforge.net/DTD/sodipodi-0.dtd"
   xmlns:inkscape="http://www.inkscape.org/namespaces/inkscape"
   width="546.08868"
   height="409.03287"
   id="svg3941"
   version="1.1"
   inkscape:version="0.48.5 r10040"
   sodipodi:docname="tree.svg">
  <defs
     id="defs3943" />
  <sodipodi:namedview
     id="base"
     pagecolor="#ffffff"
     bordercolor="#666666"
     borderopacity="1.0"
     inkscape:pageopacity="0"
     inkscape:pageshadow="2"
     inkscape:zoom="0.35"
     inkscape:cx="-32.189393"
     inkscape:cy="-48.617888"
     inkscape:document-units="px"
     inkscape:current-layer="layer1"
     showgrid="false"
     fit-margin-top="0"
     fit-margin-left="0"
     fit-margin-right="0"
     fit-margin-bottom="0"
     inkscape:window-width="1280"
     inkscape:window-height="751"
     inkscape:window-x="0"
     inkscape:window-y="0"
     inkscape:window-maximized="1" />
  <metadata
     id="metadata3946">
    <rdf:RDF>
      <cc:Work
         rdf:about="">
        <dc:format>image/svg+xml</dc:format>
        <dc:type
           rdf:resource="http://purl.org/dc/dcmitype/StillImage" />
        <dc:title />
      </cc:Work>
    </rdf:RDF>
  </metadata>
  <g
     inkscape:label="Layer 1"
     inkscape:groupmode="layer"
     id="layer1"
     transform="translate(-407.1894,-74.711425)">
    <g
       id="g5675"
       transform="matrix(3.9302731,0,0,3.9302731,-45.083824,-939.07966)">
      <g
         transform="translate(-3.9593623,-0.44098976)"
         id="g5663">
        <path
           sodipodi:nodetypes="cc"
           style="fill:none;stroke:#ffffff;stroke-width:1;stroke-linecap:butt;stroke-linejoin:miter;stroke-miterlimit:4;stroke-opacity:1;stroke-dasharray:none"
           d="m 192.03685,321.92202 14.27171,20.26049"
           id="path4915-6-4"
           inkscape:connector-curvature="0" />
        <path
           transform="matrix(-0.86933786,0.82719507,0.82719507,0.86933786,1.5186992,-518.01424)"
           inkscape:transform-center-y="-1.677675"
           inkscape:transform-center-x="1.0960059"
           d="m 370.69677,638.36749 -0.3376,-0.43009 -0.3376,-0.43008 0.54127,-0.0773 0.54127,-0.0773 -0.20367,0.50741 z"
           inkscape:randomized="0"
           inkscape:rounded="0"
           inkscape:flatsided="false"
           sodipodi:arg2="2.4760968"
           sodipodi:arg1="1.4288993"
           sodipodi:r2="0.31567267"
           sodipodi:r1="0.63134533"
           sodipodi:cy="637.74249"
           sodipodi:cx="370.60748"
           sodipodi:sides="3"
           id="path5000-3-1-0-0"
           style="fill:none;stroke:#ffffff;stroke-width:1;stroke-miterlimit:4;stroke-opacity:1;stroke-dasharray:none"
           sodipodi:type="star" />
      </g>
    </g>
    <path
       style="fill:none;stroke:#ffffff;stroke-width:3.93027306px;stroke-linecap:butt;stroke-linejoin:miter;stroke-opacity:1"
       d="m 857.73843,310.09564 c 1.85757,10.30243 16.97485,12.56752 26.58406,16.72127 5.16736,2.23385 10.71801,4.06516 16.34447,4.25275 6.277,0.20949 13.51637,0.29006 18.51006,-3.51885 9.94272,-7.58385 9.39496,-23.4012 16.50097,-33.69085 4.20315,-6.08623 13.55587,-8.96916 15.17938,-16.1853 1.88209,-8.36523 -2.32672,-17.94539 -7.86498,-24.4911 -5.21331,-6.16169 -13.46799,-10.43091 -21.50984,-11.11894 -8.06865,-0.69032 -16.89168,2.20429 -23.1629,7.32791 -5.66019,4.62444 -10.85652,11.86121 -10.64971,19.1674 0.1411,4.98857 8.93972,7.7538 8.00011,12.65512 -0.96464,5.03205 -7.97126,6.5206 -12.43609,9.03409 -4.78841,2.69562 -10.85298,3.01786 -15.20167,6.37706 -4.47202,3.45448 -11.29659,7.90826 -10.29386,13.46944 z"
       id="path5276"
       inkscape:connector-curvature="0"
       sodipodi:nodetypes="aaaaaaaaaaaaaa" />
    <path
       style="fill:none;stroke:#ffffff;stroke-width:3.93027306px;stroke-linecap:butt;stroke-linejoin:miter;stroke-opacity:1"
       d="m 769.5944,431.96681 c -7.13007,1.51433 -14.76353,0.5728 -21.67621,2.88502 -7.79581,2.60761 -18.43321,4.47559 -21.4835,12.10909 -1.58767,3.97319 0.89186,9.09752 3.75931,12.27318 7.79424,8.63202 20.88323,10.66708 32.14802,13.55952 4.70442,1.20793 9.74853,0.46653 14.49304,1.50589 6.31524,1.38341 11.93687,5.53083 18.36243,6.24406 8.74891,0.97109 19.87614,3.25097 26.25769,-2.81219 3.15467,-2.9973 2.87719,-8.61968 2.05215,-12.89228 -0.94755,-4.90683 -4.2241,-9.27332 -7.7,-12.86398 -5.04851,-5.21519 -11.3013,-9.90083 -18.3111,-11.78453 -4.19954,-1.1285 -9.10577,2.48126 -13.03121,0.61037 -4.05699,-1.93357 -3.73302,-9.4235 -7.9919,-10.85871 -2.26502,-0.7633 -4.54072,1.52801 -6.87872,2.02456 z"
       id="path5278"
       inkscape:connector-curvature="0"
       sodipodi:nodetypes="aaaaaaaaaaaaaa" />
    <g
       id="g5696"
       transform="matrix(3.9302731,0,0,3.9302731,-45.083824,-939.07966)">
      <g
         transform="translate(3.7206923,0.91224322)"
         id="g5667">
        <path
           sodipodi:nodetypes="cc"
           style="fill:none;stroke:#ffffff;stroke-width:1;stroke-linecap:butt;stroke-linejoin:miter;stroke-miterlimit:4;stroke-opacity:1;stroke-dasharray:none"
           d="m 203.31707,275.83056 -14.27171,20.26049"
           id="path4915-6-4-1"
           inkscape:connector-curvature="0" />
        <path
           transform="matrix(0.86933786,0.82719507,-0.82719507,0.86933786,393.83522,-564.10569)"
           inkscape:transform-center-y="-1.677675"
           inkscape:transform-center-x="1.0960059"
           d="m 370.69677,638.36749 -0.3376,-0.43009 -0.3376,-0.43008 0.54127,-0.0773 0.54127,-0.0773 -0.20367,0.50741 z"
           inkscape:randomized="0"
           inkscape:rounded="0"
           inkscape:flatsided="false"
           sodipodi:arg2="2.4760968"
           sodipodi:arg1="1.4288993"
           sodipodi:r2="0.31567267"
           sodipodi:r1="0.63134533"
           sodipodi:cy="637.74249"
           sodipodi:cx="370.60748"
           sodipodi:sides="3"
           id="path5000-3-1-0-0-3"
           style="fill:none;stroke:#ffffff;stroke-width:1;stroke-miterlimit:4;stroke-opacity:1;stroke-dasharray:none"
           sodipodi:type="star" />
      </g>
      <g
         transform="translate(-1.2657097,2.5193833)"
         id="g5671">
        <path
           sodipodi:nodetypes="cc"
           style="fill:none;stroke:#ffffff;stroke-width:1;stroke-linecap:butt;stroke-linejoin:miter;stroke-miterlimit:4;stroke-opacity:1;stroke-dasharray:none"
           d="m 224.18292,274.22342 14.27171,20.26048"
           id="path4915-6-4-8"
           inkscape:connector-curvature="0" />
        <path
           transform="matrix(-0.86933786,0.82719507,0.82719507,0.86933786,33.664771,-565.71284)"
           inkscape:transform-center-y="-1.677675"
           inkscape:transform-center-x="1.0960059"
           d="m 370.69677,638.36749 -0.3376,-0.43009 -0.3376,-0.43008 0.54127,-0.0773 0.54127,-0.0773 -0.20367,0.50741 z"
           inkscape:randomized="0"
           inkscape:rounded="0"
           inkscape:flatsided="false"
           sodipodi:arg2="2.4760968"
           sodipodi:arg1="1.4288993"
           sodipodi:r2="0.31567267"
           sodipodi:r1="0.63134533"
           sodipodi:cy="637.74249"
           sodipodi:cx="370.60748"
           sodipodi:sides="3"
           id="path5000-3-1-0-0-4"
           style="fill:none;stroke:#ffffff;stroke-width:1;stroke-miterlimit:4;stroke-opacity:1;stroke-dasharray:none"
           sodipodi:type="star" />
      </g>
      <rect
         y="258.44418"
         x="207.47749"
         height="15"
         width="15"
         id="rect5253"
         style="fill:none;stroke:#ffffff;stroke-width:1;stroke-miterlimit:4;stroke-opacity:1;stroke-dasharray:none" />
    </g>
    <path
       sodipodi:nodetypes="aaaaaaaaaaaaaa"
       inkscape:connector-curvature="0"
       id="path5274"
       d="m 803.76698,288.87008 c -1.1252,-2.48542 -2.31465,-5.05696 -4.21101,-7.01836 -3.14163,-3.24936 -7.0175,-6.20162 -11.38518,-7.36416 -4.20684,-1.11969 -9.69763,-2.08485 -13.041,0.70321 -4.20115,3.50333 -3.98372,10.49379 -3.81346,15.96131 0.13088,4.20303 2.0637,8.1855 3.68923,12.06366 2.84882,6.79666 6.43594,13.31376 10.54185,19.43355 4.18547,6.23836 6.84854,16.20432 14.25605,17.45525 6.02853,1.01805 15.37342,-3.4994 15.62362,-9.60815 0.16035,-3.91447 -6.35588,-4.58376 -9.47459,-6.95493 -4.02358,-3.05913 -10.60097,-4.49851 -11.91447,-9.37928 -0.8522,-3.16658 1.49661,-6.65395 3.63181,-9.14284 2.38697,-2.78236 8.17568,-2.14298 9.48457,-5.56731 1.32235,-3.45951 -1.85996,-7.20796 -3.38742,-10.58195 z"
       style="fill:none;stroke:#ffffff;stroke-width:3.93027306px;stroke-linecap:butt;stroke-linejoin:miter;stroke-opacity:1" />
    <path
       inkscape:connector-curvature="0"
       id="path4915-6-4-9"
       d="m 799.75236,147.46463 0.0586,97.40172"
       style="fill:none;stroke:#ffffff;stroke-width:3.93027306;stroke-linecap:butt;stroke-linejoin:miter;stroke-miterlimit:4;stroke-opacity:1;stroke-dasharray:none"
       sodipodi:nodetypes="cc" />
    <path
       sodipodi:type="star"
       style="fill:none;stroke:#ffffff;stroke-width:1;stroke-miterlimit:4;stroke-opacity:1;stroke-dasharray:none"
       id="path5000-3-1-0-0-48"
       sodipodi:sides="3"
       sodipodi:cx="370.60748"
       sodipodi:cy="637.74249"
       sodipodi:r1="0.63134533"
       sodipodi:r2="0.31567267"
       sodipodi:arg1="1.4288993"
       sodipodi:arg2="2.4760968"
       inkscape:flatsided="false"
       inkscape:rounded="0"
       inkscape:randomized="0"
       d="m 370.69677,638.36749 -0.3376,-0.43009 -0.3376,-0.43008 0.54127,-0.0773 0.54127,-0.0773 -0.20367,0.50741 z"
       inkscape:transform-center-x="4.3075641"
       inkscape:transform-center-y="-6.593787"
       transform="matrix(-4.6651261,0.69306794,0.69306794,4.6651261,2086.7897,-2983.35)" />
    <g
       transform="matrix(3.9302731,0,0,3.9302731,-54.909506,-941.88701)"
       id="g3866">
      <g
         id="g5659"
         transform="translate(2.3191981,1.864751)">
        <path
           inkscape:connector-curvature="0"
           id="path4915-6-4-6"
           d="m 174.20994,322.08056 -14.27171,20.26049"
           style="fill:none;stroke:#ffffff;stroke-width:1;stroke-linecap:butt;stroke-linejoin:miter;stroke-miterlimit:4;stroke-opacity:1;stroke-dasharray:none"
           sodipodi:nodetypes="cc" />
        <path
           sodipodi:type="star"
           style="fill:none;stroke:#ffffff;stroke-width:1;stroke-miterlimit:4;stroke-opacity:1;stroke-dasharray:none"
           id="path5000-3-1-0-0-0"
           sodipodi:sides="3"
           sodipodi:cx="370.60748"
           sodipodi:cy="637.74249"
           sodipodi:r1="0.63134533"
           sodipodi:r2="0.31567267"
           sodipodi:arg1="1.4288993"
           sodipodi:arg2="2.4760968"
           inkscape:flatsided="false"
           inkscape:rounded="0"
           inkscape:randomized="0"
           d="m 370.69677,638.36749 -0.3376,-0.43009 -0.3376,-0.43008 0.54127,-0.0773 0.54127,-0.0773 -0.20367,0.50741 z"
           inkscape:transform-center-x="1.0960059"
           inkscape:transform-center-y="-1.677675"
           transform="matrix(0.86933786,0.82719507,-0.82719507,0.86933786,364.72809,-517.85569)" />
      </g>
      <text
         sodipodi:linespacing="125%"
         id="text5712"
         y="337.98932"
         x="121.08492"
         style="font-size:7.69716024px;font-style:normal;font-weight:normal;line-height:125%;letter-spacing:0px;word-spacing:0px;fill:#ffffff;fill-opacity:1;stroke:none;font-family:'helvetica'"
         xml:space="preserve"><tspan
           y="337.98932"
           x="121.08492"
           id="tspan5714"
           sodipodi:role="line">index.html</tspan></text>
    </g>
    <g
       transform="matrix(3.9302731,0,0,3.9302731,-54.909506,-941.88701)"
       id="g5762">
      <path
         sodipodi:nodetypes="zzzzzzz"
         inkscape:connector-curvature="0"
         id="path5272"
         d="m 157.56322,347.62019 c 0.87711,2.4542 4.38543,3.98823 5.88421,6.60898 1.49879,2.62074 -2.12274,7.22429 -5.77278,6.95968 -3.65004,-0.26461 -4.4428,-4.04368 -5.91217,-5.78527 -1.46937,-1.74159 -3.4858,-3.09768 -2.70638,-4.87248 0.77942,-1.7748 3.57446,-0.84492 4.51741,-2.40637 0.94295,-1.56145 3.1126,-2.95874 3.98971,-0.50454 z"
         style="fill:none;stroke:#ffffff;stroke-width:1px;stroke-linecap:butt;stroke-linejoin:miter;stroke-opacity:1" />
      <text
         sodipodi:linespacing="125%"
         id="text5712-6"
         y="356.61456"
         x="117.16834"
         style="font-size:7.69716024px;font-style:normal;font-weight:normal;line-height:125%;letter-spacing:0px;word-spacing:0px;fill:#ffffff;fill-opacity:1;stroke:none;font-family:'helvetica'"
         xml:space="preserve"><tspan
           y="356.61456"
           x="117.16834"
           id="tspan5714-1"
           sodipodi:role="line">daa33a</tspan></text>
    </g>
    <g
       transform="matrix(3.9302731,0,0,3.9302731,-54.909506,-941.88701)"
       id="g5747">
      <rect
         style="fill:none;stroke:#ffffff;stroke-width:1;stroke-miterlimit:4;stroke-opacity:1;stroke-dasharray:none"
         id="rect5253-4"
         width="15"
         height="15"
         x="174.80331"
         y="302.38483"
         transform="translate(2.5000073,0.71428572)" />
      <text
         sodipodi:linespacing="125%"
         id="text5712-7"
         y="313.40097"
         x="144.03333"
         style="font-size:7.69716024px;font-style:normal;font-weight:normal;line-height:125%;letter-spacing:0px;word-spacing:0px;fill:#ffffff;fill-opacity:1;stroke:none;font-family:'helvetica'"
         xml:space="preserve"><tspan
           y="313.40097"
           x="144.03333"
           id="tspan5714-6"
           sodipodi:role="line">472cc3</tspan></text>
    </g>
  </g>
</svg>
